# xmcd
#
# Track frame offsets:
#	182
#	17405
#	33815
#	52115
#	77255
#	91242
#	121802
#	131760
#	147487
#	166782
#	189065
#	214067
#	231025
#	241087
#	253422
#	265690
#	277520
#	288207
#
# Disc length: 4006 seconds
#
# Revision: 1
# Processed by: cddbd v1.5.1PL0 Copyright (c) Steve Scherf et al.
# Submitted via: CDex 1.50Beta5
#
DISCID=e10fa412
DTITLE=クロード・ドビュッシー - ピアノ名曲集
DYEAR=1900
DGENRE=Classical
TTITLE0=アラベスク第1番
TTITLE1=アラベスク 第2番
TTITLE2=レントよりおそく
TTITLE3=喜びの島
TTITLE4=亜麻色の髪の乙女
TTITLE5=沈める寺 (前奏曲集 第1巻 第10曲)
TTITLE6=ミンストレル (前奏曲集 第1巻 第12曲)
TTITLE7=水の精 (前奏曲集 第2巻 第8曲)
TTITLE8=花火 (前奏曲集 第2巻 第12曲)
TTITLE9=塔 (版画)
TTITLE10=グラナダの夕暮れ (版画)
TTITLE11=雨の庭 (版画)
TTITLE12=グラドゥス・アド・パルナッスム博士 (組曲「子供の領分」)
TTITLE13=象の子守歌 (組曲「子供の領分」)
TTITLE14=人形へのセレナード (組曲「子供の領分」)
TTITLE15=雪は踊っている (組曲「子供の領分」)
TTITLE16=小さな羊飼い (組曲「子供の領分」)
TTITLE17=ゴリウォーグのケークウォーク
EXTD=
EXTT0=
EXTT1=
EXTT2=
EXTT3=
EXTT4=
EXTT5=
EXTT6=
EXTT7=
EXTT8=
EXTT9=
EXTT10=
EXTT11=
EXTT12=
EXTT13=
EXTT14=
EXTT15=
EXTT16=
EXTT17=
PLAYORDER=
